<?xml version="1.0" standalone="no"?><!-- Generator: Gravit.io --><svg xmlns="http://www.w3.org/2000/svg" xmlns:xlink="http://www.w3.org/1999/xlink" style="isolation:isolate" viewBox="0 0 64 64" width="64" height="64"><defs><clipPath id="_clipPath_bpv1DbsipCSs6f5yAqsGvpTl8NtEvg73"><rect width="64" height="64"/></clipPath></defs><g clip-path="url(#_clipPath_bpv1DbsipCSs6f5yAqsGvpTl8NtEvg73)"><path d=" M 21.219 0.733 C 21.165 0.743 21.111 0.758 21.063 0.772 C 20.652 0.863 20.314 1.155 20.164 1.548 C 20.012 1.941 20.071 2.385 20.32 2.725 L 22.976 6.709 C 18.48 9.072 15.251 13.149 14.5 17.998 L 14.5 18.272 C 14.495 18.334 14.495 18.403 14.5 18.467 L 14.5 20.224 C 13.745 19.77 12.881 19.527 12 19.522 C 9.25 19.522 7 21.772 7 24.522 L 7 39.522 C 7 42.272 9.25 44.522 12 44.522 C 12.881 44.516 13.745 44.273 14.5 43.818 L 14.5 47.022 C 14.5 49.078 16.194 50.772 18.25 50.772 L 19.5 50.772 L 19.5 58.272 C 19.5 61.022 21.75 63.272 24.5 63.272 C 27.25 63.272 29.5 61.022 29.5 58.272 L 29.5 50.772 L 34.5 50.772 L 34.5 58.272 C 34.5 61.022 36.75 63.272 39.5 63.272 C 42.25 63.272 44.5 61.022 44.5 58.272 L 44.5 50.772 L 45.75 50.772 C 47.806 50.772 49.5 49.078 49.5 47.022 L 49.5 43.818 C 50.255 44.273 51.119 44.516 52 44.522 C 54.75 44.522 57 42.272 57 39.522 L 57 24.522 C 57 21.772 54.75 19.522 52 19.522 C 51.119 19.528 50.255 19.771 49.5 20.225 L 49.5 18.505 C 49.515 18.389 49.515 18.272 49.5 18.155 L 49.5 18.077 C 48.773 13.194 45.545 9.082 41.024 6.709 L 43.68 2.724 C 43.986 2.304 43.998 1.737 43.709 1.304 C 43.476 0.949 43.079 0.737 42.655 0.74 C 42.23 0.743 41.836 0.961 41.609 1.319 L 38.68 5.654 C 36.619 4.912 34.354 4.522 32 4.522 C 29.646 4.522 27.381 4.913 25.32 5.654 L 22.391 1.318 C 22.141 0.918 21.688 0.693 21.219 0.733 Z  M 32 7.022 C 34.349 7.022 36.55 7.48 38.485 8.31 C 38.523 8.326 38.562 8.339 38.601 8.35 C 42.514 10.063 45.36 13.272 46.454 17.022 L 17.545 17.022 C 18.625 13.325 21.413 10.157 25.241 8.428 C 25.324 8.399 25.402 8.359 25.475 8.31 C 27.42 7.472 29.638 7.022 32 7.022 Z  M 25.125 10.772 C 24.085 10.772 23.25 11.612 23.25 12.647 C 23.25 13.687 24.085 14.522 25.125 14.522 C 26.161 14.522 27 13.682 27 12.647 C 27 11.611 26.161 10.772 25.125 10.772 Z  M 38.875 10.772 C 37.839 10.772 37 11.611 37 12.647 C 37 13.682 37.839 14.522 38.875 14.522 C 39.911 14.522 40.75 13.682 40.75 12.647 C 40.75 11.611 39.911 10.772 38.875 10.772 Z  M 17 19.522 L 47 19.522 L 47 47.022 C 47 47.725 46.453 48.272 45.75 48.272 L 35.984 48.272 C 35.816 48.238 35.644 48.238 35.476 48.272 L 20.985 48.272 C 20.817 48.237 20.644 48.237 20.476 48.272 L 18.25 48.272 C 17.546 48.272 17 47.724 17 47.022 L 17 19.522 Z  M 12 22.022 C 13.396 22.022 14.5 23.125 14.5 24.522 L 14.5 39.522 C 14.5 40.918 13.396 42.022 12 42.022 C 10.604 42.022 9.5 40.918 9.5 39.522 L 9.5 24.522 C 9.5 23.125 10.604 22.022 12 22.022 Z  M 52 22.022 C 53.396 22.022 54.5 23.125 54.5 24.522 L 54.5 39.522 C 54.5 40.918 53.396 42.022 52 42.022 C 50.604 42.022 49.5 40.918 49.5 39.522 L 49.5 24.522 C 49.5 23.125 50.604 22.022 52 22.022 Z  M 22 50.772 L 27 50.772 L 27 58.272 C 27 59.668 25.896 60.772 24.5 60.772 C 23.104 60.772 22 59.668 22 58.272 L 22 50.772 Z  M 37 50.772 L 42 50.772 L 42 58.272 C 42 59.668 40.896 60.772 39.5 60.772 C 38.104 60.772 37 59.668 37 58.272 L 37 50.772 Z " fill="rgb(0,0,0)"/></g></svg>