<?xml version="1.0" standalone="no"?><!-- Generator: Gravit.io --><svg xmlns="http://www.w3.org/2000/svg" xmlns:xlink="http://www.w3.org/1999/xlink" style="isolation:isolate" viewBox="0 0 64 64" width="64" height="64"><defs><clipPath id="_clipPath_kQ4gLaDwYAHukszkTQipxyTo3M54B8aw"><rect width="64" height="64"/></clipPath></defs><g clip-path="url(#_clipPath_kQ4gLaDwYAHukszkTQipxyTo3M54B8aw)"><path d=" M 25.625 58.051 C 25.625 59.915 24.328 61.422 22.724 61.422 L 5.105 61.422 C 3.501 61.422 2.204 59.915 2.204 58.051 L 2.204 5.187 C 2.204 3.745 3.222 2.561 4.464 2.561 L 23.365 2.561 C 24.607 2.561 25.625 3.745 25.625 5.187 L 25.625 11.785 L 27.829 11.785 L 27.829 5.187 C 27.829 2.318 25.82 0 23.365 0 L 4.464 0 C 1.995 0 0 2.334 0 5.187 L 0 58.067 C 0 61.341 2.288 64 5.105 64 L 22.724 64 C 25.541 64 27.829 61.341 27.829 58.067 L 27.829 54.809 L 25.625 54.809 L 25.625 58.051 L 25.625 58.051 Z  M 59.717 12.45 L 19.836 12.45 C 17.465 12.45 15.54 14.687 15.54 17.443 L 15.54 48.94 C 15.54 51.696 17.465 53.933 19.836 53.933 L 38.668 53.933 L 38.668 61.05 L 29.196 61.05 L 29.196 63.611 L 50.343 63.611 L 50.343 61.05 L 40.872 61.05 L 40.872 53.933 L 59.704 53.933 C 62.075 53.933 64 51.696 64 48.94 L 64 17.443 C 64.014 14.687 62.089 12.45 59.717 12.45 L 59.717 12.45 Z  M 61.81 48.94 C 61.81 50.286 60.875 51.372 59.717 51.372 L 19.836 51.372 C 18.678 51.372 17.744 50.286 17.744 48.94 L 17.744 17.443 C 17.744 16.097 18.678 15.011 19.836 15.011 L 59.717 15.011 C 60.875 15.011 61.81 16.097 61.81 17.443 L 61.81 48.94 L 61.81 48.94 Z  M 19.362 46.963 L 60.192 46.963 L 60.192 18.886 L 19.362 18.886 L 19.362 46.963 Z  M 20.464 20.166 L 59.09 20.166 L 59.09 45.698 L 20.464 45.698 L 20.464 20.166 Z  M 39.784 18.496 C 40.537 18.496 41.151 17.783 41.151 16.908 C 41.151 16.032 40.537 15.319 39.784 15.319 C 39.03 15.319 38.417 16.032 38.417 16.908 C 38.417 17.783 39.03 18.496 39.784 18.496 Z  M 39.784 16.616 C 39.923 16.616 40.049 16.746 40.049 16.924 C 40.049 17.102 39.937 17.232 39.784 17.232 C 39.63 17.232 39.519 17.102 39.519 16.924 C 39.519 16.746 39.63 16.616 39.784 16.616 Z  M 39.784 47.465 C 38.933 47.465 38.235 48.276 38.235 49.264 C 38.235 50.253 38.933 51.064 39.784 51.064 C 40.635 51.064 41.332 50.253 41.332 49.264 C 41.318 48.259 40.635 47.465 39.784 47.465 Z  M 39.784 49.767 C 39.533 49.767 39.337 49.54 39.337 49.248 C 39.337 48.956 39.533 48.729 39.784 48.729 C 40.035 48.729 40.23 48.956 40.23 49.248 C 40.23 49.54 40.021 49.767 39.784 49.767 Z  M 12.415 56.559 C 12.415 57.548 13.112 58.359 13.963 58.359 C 14.814 58.359 15.512 57.548 15.512 56.559 C 15.512 55.57 14.814 54.76 13.963 54.76 C 13.099 54.776 12.415 55.57 12.415 56.559 Z  M 14.396 56.559 C 14.396 56.851 14.201 57.078 13.949 57.078 C 13.698 57.078 13.503 56.851 13.503 56.559 C 13.503 56.267 13.698 56.041 13.949 56.041 C 14.201 56.041 14.396 56.284 14.396 56.559 Z  M 22.333 11.607 L 22.333 7.749 L 5.105 7.749 L 5.105 15.271 L 14.87 15.271 L 14.87 13.99 L 6.207 13.99 L 6.207 9.029 L 21.231 9.029 L 21.231 11.607 L 22.333 11.607 L 22.333 11.607 Z " fill="rgb(0,0,0)"/></g></svg>