<?xml version="1.0" standalone="no"?><!-- Generator: Gravit.io --><svg xmlns="http://www.w3.org/2000/svg" xmlns:xlink="http://www.w3.org/1999/xlink" style="isolation:isolate" viewBox="0 0 64 64" width="64" height="64"><defs><clipPath id="_clipPath_HNuoqWerGYfukxtJJE5Rwu0aLatnhNTu"><rect width="64" height="64"/></clipPath></defs><g clip-path="url(#_clipPath_HNuoqWerGYfukxtJJE5Rwu0aLatnhNTu)"><path d=" M 28.639 0 C 18.783 0 11.517 3.323 6.819 8.531 C 2.121 13.744 0 20.744 0 28 C 0 33.875 1.859 39.344 5.013 43.823 C 7.869 47.885 9.546 52.693 9.546 57.6 L 9.546 64 L 12.274 64 L 12.274 57.6 C 12.274 52.104 10.404 46.781 7.261 42.312 C 4.3 38.101 2.719 33.11 2.728 28 C 2.728 21.255 4.698 14.921 8.865 10.303 C 13.031 5.676 19.402 2.667 28.639 2.667 C 37.913 2.667 43.923 5.307 47.892 9.344 C 51.86 13.375 53.832 18.937 54.561 24.957 L 54.593 25.229 L 61.135 36.249 C 61.471 36.844 61.3 37.437 60.71 37.765 L 54.551 40.776 L 54.551 48.797 C 54.551 53.787 50.353 57.667 45.265 57.208 L 45.245 57.203 L 39.55 56.843 L 39.55 64 L 42.277 64 L 42.277 59.688 L 45.016 59.86 C 51.657 60.469 57.279 55.276 57.279 48.797 L 57.279 42.421 L 62.03 40.099 C 63.89 39.088 64.539 36.755 63.517 34.952 L 63.511 34.943 L 57.172 24.265 C 56.362 18.021 54.285 11.995 49.858 7.489 C 45.335 2.896 38.457 0 28.639 0 Z  M 31.367 17.312 C 30.716 17.317 30.157 17.765 30.03 18.391 L 25.939 37.057 C 25.784 37.776 26.253 38.484 26.989 38.64 C 27.728 38.792 28.453 38.331 28.612 37.609 L 32.703 18.943 C 32.794 18.546 32.696 18.131 32.436 17.814 C 32.176 17.496 31.783 17.312 31.367 17.312 Z  M 19.823 21.317 C 19.373 21.306 18.946 21.513 18.682 21.869 L 13.979 28 L 18.684 34.131 C 18.899 34.415 19.221 34.603 19.579 34.654 C 19.937 34.705 20.301 34.614 20.59 34.401 C 20.881 34.191 21.074 33.875 21.126 33.525 C 21.178 33.175 21.085 32.819 20.867 32.536 L 17.388 28 L 20.866 23.464 C 21.181 23.067 21.241 22.531 21.021 22.077 C 20.803 21.624 20.339 21.333 19.823 21.317 Z  M 38.778 21.317 C 38.272 21.346 37.824 21.647 37.616 22.099 C 37.403 22.547 37.465 23.074 37.775 23.464 L 41.254 28 L 37.777 32.536 C 37.559 32.819 37.465 33.174 37.517 33.525 C 37.568 33.875 37.761 34.191 38.052 34.401 C 38.341 34.614 38.706 34.706 39.064 34.655 C 39.422 34.604 39.745 34.415 39.96 34.131 L 44.664 28 L 39.959 21.869 C 39.687 21.5 39.242 21.292 38.778 21.317 Z " fill="rgb(0,0,0)"/></g></svg>