<?xml version="1.0" standalone="no"?><!-- Generator: Gravit.io --><svg xmlns="http://www.w3.org/2000/svg" xmlns:xlink="http://www.w3.org/1999/xlink" style="isolation:isolate" viewBox="0 0 64 64" width="64" height="64"><defs><clipPath id="_clipPath_WEVuLTvhhvQrNtaTCGwFyCJ7V9KWFaN1"><rect width="64" height="64"/></clipPath></defs><g clip-path="url(#_clipPath_WEVuLTvhhvQrNtaTCGwFyCJ7V9KWFaN1)"><path d=" M 32 0 C 21.87 0 12.828 4.737 6.962 12.108 C 6.905 12.168 6.84 12.211 6.797 12.28 C 6.784 12.302 6.781 12.332 6.767 12.353 C 2.535 17.78 0 24.599 0 32 C 0 39.404 2.535 46.229 6.775 51.656 C 6.788 51.677 6.784 51.699 6.802 51.72 C 6.862 51.815 6.935 51.892 7.017 51.966 C 12.888 59.293 21.901 64 32 64 C 42.159 64 51.224 59.238 57.09 51.828 C 57.126 51.789 57.167 51.758 57.194 51.715 C 57.207 51.702 57.207 51.686 57.212 51.668 C 61.616 46.058 64.006 39.132 64 32 C 64 24.59 61.462 17.768 57.219 12.337 C 57.207 12.319 57.212 12.301 57.197 12.285 C 57.169 12.237 57.117 12.207 57.081 12.163 C 51.215 4.759 42.155 0 32 0 Z  M 30.897 2.293 L 30.897 17.638 C 26.686 17.565 22.634 17.069 18.948 16.19 C 21.553 8.289 25.992 2.99 30.897 2.293 Z  M 33.103 2.293 C 38.004 2.991 42.449 8.289 45.052 16.19 C 41.366 17.069 37.314 17.565 33.103 17.638 L 33.103 2.293 Z  M 24.177 3.258 C 21.117 5.956 18.543 10.216 16.793 15.617 C 14.06 14.819 11.564 13.811 9.418 12.599 C 13.25 8.151 18.358 4.841 24.177 3.258 Z  M 39.819 3.258 C 45.638 4.841 50.75 8.151 54.582 12.599 C 52.436 13.811 49.94 14.819 47.207 15.616 C 45.452 10.216 42.879 5.956 39.819 3.258 Z  M 8.025 14.332 C 10.388 15.706 13.138 16.845 16.172 17.728 C 15.703 19.464 15.328 21.224 15.047 23 C 15 23.289 15.07 23.584 15.242 23.82 C 15.414 24.056 15.673 24.214 15.961 24.258 C 16.018 24.27 16.076 24.276 16.134 24.276 C 16.668 24.276 17.138 23.887 17.224 23.345 C 17.504 21.582 17.875 19.902 18.311 18.302 C 22.202 19.242 26.47 19.772 30.897 19.844 L 30.897 23.172 C 30.897 23.782 31.391 24.276 32 24.276 C 32.609 24.276 33.103 23.782 33.103 23.172 L 33.103 19.844 C 37.526 19.772 41.798 19.241 45.685 18.302 C 46.121 19.902 46.496 21.578 46.776 23.345 C 46.821 23.634 46.98 23.893 47.217 24.065 C 47.454 24.236 47.75 24.306 48.039 24.258 C 48.327 24.214 48.586 24.056 48.758 23.82 C 48.929 23.583 48.999 23.288 48.952 23 C 48.669 21.224 48.294 19.465 47.827 17.728 C 50.858 16.85 53.612 15.706 55.97 14.336 C 59.759 19.445 61.801 25.639 61.793 32 C 61.798 38.362 59.757 44.556 55.97 49.668 C 53.612 48.294 50.854 47.15 47.819 46.268 C 48.181 44.94 48.5 43.564 48.762 42.125 C 48.815 41.838 48.752 41.541 48.585 41.301 C 48.419 41.06 48.163 40.897 47.875 40.845 C 47.276 40.738 46.703 41.134 46.591 41.732 C 46.349 43.067 46.05 44.39 45.694 45.698 C 41.802 44.758 37.53 44.228 33.103 44.156 L 33.103 41.931 C 33.103 41.322 32.609 40.828 32 40.828 C 31.391 40.828 30.897 41.322 30.897 41.931 L 30.897 44.156 C 26.47 44.228 22.198 44.759 18.306 45.698 C 17.95 44.39 17.651 43.067 17.409 41.732 C 17.296 41.135 16.723 40.74 16.125 40.845 C 15.526 40.956 15.129 41.53 15.238 42.13 C 15.5 43.564 15.819 44.943 16.181 46.272 C 13.142 47.15 10.388 48.294 8.026 49.668 C 4.241 44.556 2.201 38.361 2.207 32 C 2.202 25.639 4.242 19.445 8.025 14.332 L 8.025 14.332 Z  M 20.845 25.384 C 20.404 25.433 20.035 25.741 19.91 26.167 L 17.539 34.065 L 15.38 28.301 C 15.218 27.87 14.805 27.584 14.345 27.584 C 13.884 27.584 13.472 27.87 13.31 28.301 L 11.15 34.065 L 8.78 26.168 C 8.605 25.584 7.99 25.252 7.405 25.427 C 6.824 25.603 6.495 26.215 6.668 26.797 L 9.978 37.832 C 10.112 38.289 10.521 38.604 11 38.621 C 11.491 38.659 11.905 38.349 12.07 37.906 L 14.345 31.832 L 16.621 37.906 C 16.785 38.336 17.198 38.621 17.655 38.621 L 17.689 38.621 C 18.165 38.607 18.577 38.288 18.711 37.832 L 22.022 26.797 C 22.194 26.214 21.863 25.601 21.28 25.427 C 21.133 25.383 20.988 25.366 20.845 25.383 L 20.845 25.384 Z  M 38.5 25.384 C 38.059 25.433 37.69 25.741 37.565 26.167 L 35.194 34.065 L 33.034 28.301 C 32.872 27.871 32.46 27.586 31.999 27.586 C 31.539 27.586 31.127 27.871 30.965 28.301 L 28.806 34.065 L 26.435 26.168 C 26.238 25.616 25.643 25.315 25.081 25.482 C 24.52 25.65 24.187 26.227 24.323 26.797 L 27.634 37.832 C 27.767 38.289 28.177 38.604 28.655 38.621 C 29.13 38.659 29.556 38.349 29.724 37.906 L 32 31.832 L 34.276 37.906 C 34.44 38.336 34.854 38.621 35.31 38.621 L 35.345 38.621 C 35.82 38.607 36.232 38.288 36.366 37.832 L 39.677 26.797 C 39.849 26.214 39.518 25.601 38.935 25.427 C 38.788 25.383 38.643 25.366 38.5 25.383 L 38.5 25.384 Z  M 56.156 25.384 C 55.714 25.433 55.346 25.741 55.22 26.167 L 52.85 34.065 L 50.689 28.301 C 50.526 27.872 50.115 27.587 49.655 27.587 C 49.196 27.587 48.784 27.872 48.621 28.301 L 46.461 34.065 L 44.09 26.168 C 43.893 25.616 43.298 25.315 42.737 25.482 C 42.175 25.65 41.842 26.227 41.978 26.797 L 45.289 37.832 C 45.422 38.289 45.832 38.604 46.311 38.621 C 46.81 38.659 47.215 38.349 47.379 37.906 L 49.655 31.832 L 51.932 37.906 C 52.095 38.336 52.509 38.621 52.966 38.621 L 53 38.621 C 53.475 38.607 53.888 38.288 54.022 37.832 L 57.332 26.797 C 57.505 26.214 57.173 25.601 56.59 25.427 C 56.444 25.383 56.298 25.366 56.156 25.383 L 56.156 25.384 Z  M 30.897 46.362 L 30.897 61.707 C 25.965 61.022 21.535 55.78 18.931 47.81 C 22.621 46.931 26.681 46.435 30.897 46.362 Z  M 33.103 46.362 C 37.319 46.435 41.379 46.936 45.069 47.815 C 42.465 55.78 38.035 61.026 33.103 61.707 L 33.103 46.362 Z  M 16.814 48.38 C 18.578 53.775 21.169 58.057 24.241 60.758 C 18.474 59.193 13.311 55.933 9.418 51.401 C 11.57 50.185 14.073 49.172 16.814 48.38 Z  M 47.186 48.38 C 49.927 49.172 52.431 50.185 54.582 51.401 C 50.689 55.934 45.525 59.193 39.758 60.758 C 42.828 58.056 45.422 53.775 47.185 48.38 L 47.186 48.38 Z " fill="rgb(0,0,0)"/></g></svg>