<?xml version="1.0" standalone="no"?><!-- Generator: Gravit.io --><svg xmlns="http://www.w3.org/2000/svg" xmlns:xlink="http://www.w3.org/1999/xlink" style="isolation:isolate" viewBox="0 0 800 840" width="800" height="840"><defs><clipPath id="_clipPath_Zr8mqKC6FCfFAQLU3aKFa18KJUh3KvmL"><rect width="800" height="840"/></clipPath></defs><g clip-path="url(#_clipPath_Zr8mqKC6FCfFAQLU3aKFa18KJUh3KvmL)"><g transform="matrix(0.653,0,0,0.653,135.508,662.712)"><text transform="matrix(1,0,0,1,0,25.104)" style="font-family:&quot;Didact Gothic&quot;;font-weight:400;font-size:24px;font-style:normal;fill:#000000;stroke:none;">Python 3</text></g><g transform="matrix(0.653,0,0,0.653,181.713,731.159)"><text transform="matrix(1,0,0,1,0,23.012)" style="font-family:&quot;Didact Gothic&quot;;font-weight:400;font-size:22px;font-style:normal;fill:#000000;stroke:none;">Bash Script</text></g><g transform="matrix(0.653,0,0,0.653,121.142,719.404)"><text transform="matrix(1,0,0,1,0,31.38)" style="font-family:&quot;Didact Gothic&quot;;font-weight:400;font-size:30px;font-style:normal;fill:#000000;stroke:none;">Java</text></g><g transform="matrix(0.653,0,0,0.653,597.826,38)"><text transform="matrix(1,0,0,1,0,23.012)" style="font-family:&quot;Didact Gothic&quot;;font-weight:400;font-size:22px;font-style:normal;fill:#000000;stroke:none;">Hibernate</text></g><g transform="matrix(0.653,0,0,0.653,342.861,125.461)"><text transform="matrix(1,0,0,1,0,25.104)" style="font-family:&quot;Didact Gothic&quot;;font-weight:400;font-size:24px;font-style:normal;fill:#000000;stroke:none;">JSON</text></g><g transform="matrix(0.653,0,0,0.653,674.398,467.929)"><text transform="matrix(1,0,0,1,0,23.012)" style="font-family:&quot;Didact Gothic&quot;;font-weight:400;font-size:22px;font-style:normal;fill:#000000;stroke:none;">Spring MVC</text></g><g transform="matrix(0.653,0,0,0.653,675.868,42.091)"><text transform="matrix(1,0,0,1,0,33.472)" style="font-family:&quot;Didact Gothic&quot;;font-weight:400;font-size:32px;font-style:normal;fill:#000000;stroke:none;">MySQL</text></g><g transform="matrix(0.653,0,0,0.653,76.239,303.391)"><text transform="matrix(1,0,0,1,0,27.196)" style="font-family:&quot;Didact Gothic&quot;;font-weight:400;font-size:26px;font-style:normal;fill:#000000;stroke:none;">Android</text></g><g transform="matrix(0.653,0,0,0.653,677.5,88.78)"><text transform="matrix(1,0,0,1,0,29.288)" style="font-family:&quot;Didact Gothic&quot;;font-weight:400;font-size:28px;font-style:normal;fill:#000000;stroke:none;">SQLite</text></g><g transform="matrix(0.653,0,0,0.653,82.279,129.971)"><text transform="matrix(1,0,0,1,0,23.012)" style="font-family:&quot;Didact Gothic&quot;;font-weight:400;font-size:22px;font-style:normal;fill:#000000;stroke:none;">Firebase</text></g><g transform="matrix(0.653,0,0,0.653,697.902,258.834)"><text transform="matrix(1,0,0,1,0,31.38)" style="font-family:&quot;Didact Gothic&quot;;font-weight:400;font-size:30px;font-style:normal;fill:#000000;stroke:none;">PHP</text></g><g transform="matrix(0.653,0,0,0.653,630.479,314.152)"><text transform="matrix(1,0,0,1,0,20.92)" style="font-family:&quot;Didact Gothic&quot;;font-weight:400;font-size:20px;font-style:normal;fill:#000000;stroke:none;">Wordpress</text></g><g transform="matrix(0.653,0,0,0.653,56.494,707.958)"><text transform="matrix(1,0,0,1,0,25.104)" style="font-family:&quot;Didact Gothic&quot;;font-weight:400;font-size:24px;font-style:normal;fill:#000000;stroke:none;">C / C++</text></g><g transform="matrix(0.653,0,0,0.653,702.465,523.629)"><text transform="matrix(1,0,0,1,0,27.196)" style="font-family:&quot;Didact Gothic&quot;;font-weight:400;font-size:26px;font-style:normal;fill:#000000;stroke:none;">Angular</text></g><g transform="matrix(0.653,0,0,0.653,580.883,333.815)"><text transform="matrix(1,0,0,1,0,18.828)" style="font-family:&quot;Didact Gothic&quot;;font-weight:400;font-size:18px;font-style:normal;fill:#000000;stroke:none;">NodeJS</text></g><g transform="matrix(0.653,0,0,0.653,708.683,295.318)"><text transform="matrix(1,0,0,1,0,23.012)" style="font-family:&quot;Didact Gothic&quot;;font-weight:400;font-size:22px;font-style:normal;fill:#000000;stroke:none;">WebSocket</text></g><g transform="matrix(0.653,0,0,0.653,555.742,258.834)"><text transform="matrix(1,0,0,1,0,23.012)" style="font-family:&quot;Didact Gothic&quot;;font-weight:400;font-size:22px;font-style:normal;fill:#000000;stroke:none;">JavaEE</text></g><g transform="matrix(0.653,0,0,0.653,74.778,666.079)"><text transform="matrix(1,0,0,1,0,23.012)" style="font-family:&quot;Didact Gothic&quot;;font-weight:400;font-size:22px;font-style:normal;fill:#000000;stroke:none;">JavaFx</text></g><g transform="matrix(0.653,0,0,0.653,619.453,522.279)"><text transform="matrix(1,0,0,1,0,20.92)" style="font-family:&quot;Didact Gothic&quot;;font-weight:400;font-size:20px;font-style:normal;fill:#000000;stroke:none;">Slim</text></g><g transform="matrix(0.653,0,0,0.653,528.967,687.72)"><text transform="matrix(1,0,0,1,0,31.38)" style="font-family:&quot;Didact Gothic&quot;;font-weight:400;font-size:30px;font-style:normal;fill:#000000;stroke:none;">HTML5</text></g><g transform="matrix(0.653,0,0,0.653,385.801,656.12)"><text transform="matrix(1,0,0,1,0,27.196)" style="font-family:&quot;Didact Gothic&quot;;font-weight:400;font-size:26px;font-style:normal;fill:#000000;stroke:none;">CSS3</text></g><g transform="matrix(0.653,0,0,0.653,426.287,683.131)"><text transform="matrix(1,0,0,1,0,23.012)" style="font-family:&quot;Didact Gothic&quot;;font-weight:400;font-size:22px;font-style:normal;fill:#000000;stroke:none;">SASS</text></g><g transform="matrix(0.653,0,0,0.653,669,550.141)"><text transform="matrix(1,0,0,1,0,25.104)" style="font-family:&quot;Didact Gothic&quot;;font-weight:400;font-size:24px;font-style:normal;fill:#000000;stroke:none;">Bootstrap 4</text></g><g transform="matrix(0.653,0,0,0.653,474.467,719.404)"><text transform="matrix(1,0,0,1,0,27.196)" style="font-family:&quot;Didact Gothic&quot;;font-weight:400;font-size:26px;font-style:normal;fill:#000000;stroke:none;">JavaScript</text></g><g transform="matrix(0.653,0,0,0.653,392.649,707.958)"><text transform="matrix(1,0,0,1,0,23.012)" style="font-family:&quot;Didact Gothic&quot;;font-weight:400;font-size:22px;font-style:normal;fill:#000000;stroke:none;">Responsive</text></g><g transform="matrix(0.653,0,0,0.653,16.223,470.894)"><text transform="matrix(1,0,0,1,0,25.104)" style="font-family:&quot;Didact Gothic&quot;;font-weight:400;font-size:24px;font-style:normal;fill:#000000;stroke:none;">PhpMyAdmin</text></g><g transform="matrix(0.653,0,0,0.653,528.967,619.123)"><text transform="matrix(1,0,0,1,0.99,23.012)" style="font-family:&quot;Didact Gothic&quot;;font-weight:400;font-size:22px;font-style:normal;fill:#000000;stroke:none;">jQuery</text></g><g transform="matrix(0.653,0,0,0.653,585.571,97.673)"><text transform="matrix(1,0,0,1,0,20.92)" style="font-family:&quot;Didact Gothic&quot;;font-weight:400;font-size:20px;font-style:normal;fill:#000000;stroke:none;">MongoDB</text></g><g transform="matrix(0.653,0,0,0.653,612.355,478.191)"><text transform="matrix(1,0,0,1,0,18.828)" style="font-family:&quot;Didact Gothic&quot;;font-weight:400;font-size:18px;font-style:normal;fill:#000000;stroke:none;">ExpressJS</text></g><g transform="matrix(0.653,0,0,0.653,219.881,700.562)"><text transform="matrix(1,0,0,1,0,27.196)" style="font-family:&quot;Didact Gothic&quot;;font-weight:400;font-size:26px;font-style:normal;fill:#000000;stroke:none;">Linux</text></g><g transform="matrix(0.653,0,0,0.653,612.579,259.364)"><text transform="matrix(1,0,0,1,0,25.104)" style="font-family:&quot;Didact Gothic&quot;;font-weight:400;font-size:24px;font-style:normal;fill:#000000;stroke:none;">Web API</text></g><g transform="matrix(0.653,0,0,0.653,590.163,279.492)"><text transform="matrix(1,0,0,1,0,38.479)" style="font-family:&quot;Open Sans&quot;;font-weight:700;font-size:36px;font-style:normal;fill:#000000;stroke:none;">Back-End</text></g><g transform="matrix(0.653,0,0,0.653,600.281,490.205)"><text transform="matrix(1,0,0,1,0,38.479)" style="font-family:&quot;Open Sans&quot;;font-weight:700;font-size:36px;font-style:normal;fill:#000000;stroke:none;">Frameworks</text></g><g transform="matrix(0.653,0,0,0.653,333.066,90.702)"><text transform="matrix(1,0,0,1,0,38.479)" style="font-family:&quot;Open Sans&quot;;font-weight:700;font-size:36px;font-style:normal;fill:#000000;stroke:none;">Data</text></g><g transform="matrix(0.653,0,0,0.653,576.603,59.877)"><text transform="matrix(1,0,0,1,0,38.479)" style="font-family:&quot;Open Sans&quot;;font-weight:700;font-size:36px;font-style:normal;fill:#000000;stroke:none;">Database</text></g><g transform="matrix(0.653,0,0,0.653,83.748,267.152)"><text transform="matrix(1,0,0,1,0,38.479)" style="font-family:&quot;Open Sans&quot;;font-weight:700;font-size:36px;font-style:normal;fill:#000000;stroke:none;">Mobile</text></g><g transform="matrix(0.653,0,0,0.653,43.257,94.56)"><text transform="matrix(1,0,0,1,0,38.479)" style="font-family:&quot;Open Sans&quot;;font-weight:700;font-size:36px;font-style:normal;fill:#000000;stroke:none;">Cloud</text></g><g transform="matrix(0.653,0,0,0.653,113.907,686.217)"><text transform="matrix(1,0,0,1,0,38.479)" style="font-family:&quot;Open Sans&quot;;font-weight:700;font-size:36px;font-style:normal;fill:#000000;stroke:none;">Desktop</text></g><g transform="matrix(0.653,0,0,0.653,437.76,641.242)"><text transform="matrix(1,0,0,1,0,38.479)" style="font-family:&quot;Open Sans&quot;;font-weight:700;font-size:36px;font-style:normal;fill:#000000;stroke:none;">Front-End</text></g><g transform="matrix(0.653,0,0,0.653,118.913,454.887)"><text transform="matrix(1,0,0,1,0,38.479)" style="font-family:&quot;Open Sans&quot;;font-weight:700;font-size:36px;font-style:normal;fill:#000000;stroke:none;">Tools</text></g><g transform="matrix(0.653,0,0,0.653,388.253,346.36)"><text transform="matrix(1,0,0,1,0,51.305)" style="font-family:&quot;Open Sans&quot;;font-weight:700;font-size:48px;font-style:normal;fill:#000000;stroke:none;">Me</text></g><g transform="matrix(0.653,0,0,0.653,480.566,680.015)"><text transform="matrix(1,0,0,1,0,25.104)" style="font-family:&quot;Didact Gothic&quot;;font-weight:400;font-size:24px;font-style:normal;fill:#000000;stroke:none;">AJAX</text></g><g transform="matrix(0.653,0,0,0.653,393.31,87.295)"><text transform="matrix(1,0,0,1,0,23.012)" style="font-family:&quot;Didact Gothic&quot;;font-weight:400;font-size:22px;font-style:normal;fill:#000000;stroke:none;">XML</text></g><g transform="matrix(0.653,0,0,0.653,287.771,72.763)"><text transform="matrix(1,0,0,1,0,20.92)" style="font-family:&quot;Didact Gothic&quot;;font-weight:400;font-size:20px;font-style:normal;fill:#000000;stroke:none;">Web Scrapping</text></g><g transform="matrix(0.653,0,0,0.653,171.232,497.753)"><text transform="matrix(1,0,0,1,0,31.38)" style="font-family:&quot;Didact Gothic&quot;;font-weight:400;font-size:30px;font-style:normal;fill:#000000;stroke:none;">Git</text></g><g transform="matrix(0.653,0,0,0.653,195.483,470.894)"><text transform="matrix(1,0,0,1,0,20.92)" style="font-family:&quot;Didact Gothic&quot;;font-weight:400;font-size:20px;font-style:normal;fill:#000000;stroke:none;">GIMP</text></g><g transform="matrix(0.653,0,0,0.653,176.13,437.033)"><text transform="matrix(1,0,0,1,0,27.196)" style="font-family:&quot;Didact Gothic&quot;;font-weight:400;font-size:26px;font-style:normal;fill:#000000;stroke:none;">Postman</text></g><g transform="matrix(0.653,0,0,0.653,99.649,497.09)"><text transform="matrix(1,0,0,1,14.956,23.012)" style="font-family:&quot;Didact Gothic&quot;;font-weight:400;font-size:22px;font-style:normal;fill:#000000;stroke:none;">Gravit</text><text transform="matrix(1,0,0,1,0.04,51.854)" style="font-family:&quot;Didact Gothic&quot;;font-weight:400;font-size:22px;font-style:normal;fill:#000000;stroke:none;">Designer</text></g><g transform="matrix(0.653,0,0,0.653,361.798,621.388)"><text transform="matrix(1,0,0,1,0,27.196)" style="font-family:&quot;Didact Gothic&quot;;font-weight:400;font-size:26px;font-style:normal;fill:#000000;stroke:none;">UI / UX Design</text></g><g transform="matrix(0.653,0,0,0.653,477.47,355.24)"><text transform="matrix(1,0,0,1,0,27.196)" style="font-family:&quot;Didact Gothic&quot;;font-weight:400;font-size:26px;font-style:normal;fill:#000000;stroke:none;">Punctual</text></g><g transform="matrix(0.653,0,0,0.653,325.397,398.782)"><text transform="matrix(1,0,0,1,0,23.012)" style="font-family:&quot;Didact Gothic&quot;;font-weight:400;font-size:22px;font-style:normal;fill:#000000;stroke:none;">Analytical</text></g><g opacity="0.42"><path d=" M 205.814 679.519 C 205.814 675.823 208.815 672.822 212.512 672.822 C 216.208 672.822 219.209 675.823 219.209 679.519 C 219.209 683.216 216.208 686.217 212.512 686.217 C 208.815 686.217 205.814 683.216 205.814 679.519 Z " fill="rgb(0,0,0)"/></g><g opacity="0.42"><path d=" M 113.027 449.427 C 113.027 445.731 116.028 442.729 119.725 442.729 C 123.421 442.729 126.422 445.731 126.422 449.427 C 126.422 453.123 123.421 456.125 119.725 456.125 C 116.028 456.125 113.027 453.123 113.027 449.427 Z " fill="rgb(0,0,0)"/></g><g opacity="0.42"><path d=" M 660.36 111.726 C 660.36 108.029 663.361 105.028 667.057 105.028 C 670.753 105.028 673.755 108.029 673.755 111.726 C 673.755 115.422 670.753 118.423 667.057 118.423 C 663.361 118.423 660.36 115.422 660.36 111.726 Z " fill="rgb(0,0,0)"/></g><g opacity="0.42"><path d=" M 287.771 348.225 C 287.771 344.529 290.772 341.528 294.468 341.528 C 298.165 341.528 301.166 344.529 301.166 348.225 C 301.166 351.922 298.165 354.923 294.468 354.923 C 290.772 354.923 287.771 351.922 287.771 348.225 Z " fill="rgb(0,0,0)"/></g><g opacity="0.42"><path d=" M 444.579 346.36 C 444.579 342.663 447.58 339.662 451.277 339.662 C 454.973 339.662 457.974 342.663 457.974 346.36 C 457.974 350.056 454.973 353.057 451.277 353.057 C 447.58 353.057 444.579 350.056 444.579 346.36 Z " fill="rgb(0,0,0)"/></g><g opacity="0.42"><path d=" M 550.445 311.713 C 550.445 308.017 553.446 305.016 557.143 305.016 C 560.839 305.016 563.84 308.017 563.84 311.713 C 563.84 315.41 560.839 318.411 557.143 318.411 C 553.446 318.411 550.445 315.41 550.445 311.713 Z " fill="rgb(0,0,0)"/></g><g opacity="0.42"><path d=" M 684.507 341.528 C 684.507 337.831 687.508 334.83 691.205 334.83 C 694.901 334.83 697.902 337.831 697.902 341.528 C 697.902 345.224 694.901 348.225 691.205 348.225 C 687.508 348.225 684.507 345.224 684.507 341.528 Z " fill="rgb(0,0,0)"/></g><g opacity="0.42"><path d=" M 621.466 464.136 C 621.466 460.44 624.467 457.439 628.163 457.439 C 631.859 457.439 634.861 460.44 634.861 464.136 C 634.861 467.833 631.859 470.834 628.163 470.834 C 624.467 470.834 621.466 467.833 621.466 464.136 Z " fill="rgb(0,0,0)"/></g><g opacity="0.42"><path d=" M 491.678 625.82 C 491.678 622.124 494.679 619.123 498.375 619.123 C 502.072 619.123 505.073 622.124 505.073 625.82 C 505.073 629.517 502.072 632.518 498.375 632.518 C 494.679 632.518 491.678 629.517 491.678 625.82 Z " fill="rgb(0,0,0)"/></g><g opacity="0.42"><path d=" M 172.064 288.078 C 172.064 284.381 175.065 281.38 178.761 281.38 C 182.458 281.38 185.459 284.381 185.459 288.078 C 185.459 291.774 182.458 294.775 178.761 294.775 C 175.065 294.775 172.064 291.774 172.064 288.078 Z " fill="rgb(0,0,0)"/></g><g opacity="0.42"><path d=" M 311.349 124.675 C 311.349 120.979 314.35 117.978 318.047 117.978 C 321.743 117.978 324.744 120.979 324.744 124.675 C 324.744 128.372 321.743 131.373 318.047 131.373 C 314.35 131.373 311.349 128.372 311.349 124.675 Z " fill="rgb(0,0,0)"/></g><g opacity="0.42"><path d=" M 31.989 131.554 C 31.989 127.857 34.99 124.856 38.686 124.856 C 42.383 124.856 45.384 127.857 45.384 131.554 C 45.384 135.25 42.383 138.251 38.686 138.251 C 34.99 138.251 31.989 135.25 31.989 131.554 Z " fill="rgb(0,0,0)"/></g><g opacity="0.42"><line x1="38.033" y1="130.88" x2="178.761" y2="288.078" vector-effect="non-scaling-stroke" stroke-width="1" stroke="rgb(0,0,0)" stroke-linejoin="miter" stroke-linecap="square" stroke-miterlimit="3"/></g><g opacity="0.42"><line x1="178.761" y1="288.078" x2="120.524" y2="449.829" vector-effect="non-scaling-stroke" stroke-width="1" stroke="rgb(0,0,0)" stroke-linejoin="miter" stroke-linecap="square" stroke-miterlimit="3"/></g><g opacity="0.42"><line x1="498.524" y1="625.829" x2="436.158" y2="431" vector-effect="non-scaling-stroke" stroke-width="1" stroke="rgb(0,0,0)" stroke-linejoin="miter" stroke-linecap="square" stroke-miterlimit="3"/></g><g transform="matrix(0.653,0,0,0.653,272.425,366.369)"><text transform="matrix(1,0,0,1,0,31.38)" style="font-family:&quot;Didact Gothic&quot;;font-weight:400;font-size:30px;font-style:normal;fill:#000000;stroke:none;">Committed</text></g><g opacity="0.42"><line x1="654" y1="236.829" x2="669" y2="112" vector-effect="non-scaling-stroke" stroke-width="1" stroke="rgb(0,0,0)" stroke-linejoin="miter" stroke-linecap="square" stroke-miterlimit="3"/></g><g opacity="0.42"><line x1="295" y1="349.225" x2="178.761" y2="288.078" vector-effect="non-scaling-stroke" stroke-width="1" stroke="rgb(0,0,0)" stroke-linejoin="miter" stroke-linecap="square" stroke-miterlimit="3"/></g><g transform="matrix(0.653,0,0,0.653,436.919,379.211)"><text transform="matrix(1,0,0,1,0,25.104)" style="font-family:&quot;Didact Gothic&quot;;font-weight:400;font-size:24px;font-style:normal;fill:#000000;stroke:none;">Leadership</text></g><g transform="matrix(0.653,0,0,0.653,407.031,307.304)"><text transform="matrix(1,0,0,1,0,29.288)" style="font-family:&quot;Didact Gothic&quot;;font-weight:400;font-size:28px;font-style:normal;fill:#000000;stroke:none;">Research</text></g><g opacity="0.42"><line x1="347" y1="441" x2="212.524" y2="679.829" vector-effect="non-scaling-stroke" stroke-width="1" stroke="rgb(0,0,0)" stroke-linejoin="miter" stroke-linecap="square" stroke-miterlimit="3"/></g><g transform="matrix(0.653,0,0,0.653,316.263,306.722)"><text transform="matrix(1,0,0,1,43.336,25.104)" style="font-family:&quot;Didact Gothic&quot;;font-weight:400;font-size:24px;font-style:normal;fill:#000000;stroke:none;">Time</text><text transform="matrix(1,0,0,1,0.376,56.568)" style="font-family:&quot;Didact Gothic&quot;;font-weight:400;font-size:24px;font-style:normal;fill:#000000;stroke:none;">Management</text></g><g transform="matrix(0.653,0,0,0.653,394.95,400.595)"><text transform="matrix(1,0,0,1,0,25.104)" style="font-family:&quot;Didact Gothic&quot;;font-weight:400;font-size:24px;font-style:normal;fill:#000000;stroke:none;">Logical</text></g><g opacity="0.42"><line x1="452" y1="347.225" x2="557.143" y2="312" vector-effect="non-scaling-stroke" stroke-width="1" stroke="rgb(0,0,0)" stroke-linejoin="miter" stroke-linecap="square" stroke-miterlimit="3"/></g><g opacity="0.42"><path d=" M 429.221 431.714 C 429.221 428.017 432.222 425.016 435.919 425.016 C 439.615 425.016 442.616 428.017 442.616 431.714 C 442.616 435.41 439.615 438.411 435.919 438.411 C 432.222 438.411 429.221 435.41 429.221 431.714 Z " fill="rgb(0,0,0)"/></g><g opacity="0.42"><path d=" M 339.783 441.729 C 339.783 438.033 342.784 435.032 346.48 435.032 C 350.177 435.032 353.178 438.033 353.178 441.729 C 353.178 445.426 350.177 448.427 346.48 448.427 C 342.784 448.427 339.783 445.426 339.783 441.729 Z " fill="rgb(0,0,0)"/></g><g opacity="0.42"><path d=" M 392.649 121.066 C 392.649 117.369 395.65 114.368 399.346 114.368 C 403.043 114.368 406.044 117.369 406.044 121.066 C 406.044 124.762 403.043 127.763 399.346 127.763 C 395.65 127.763 392.649 124.762 392.649 121.066 Z " fill="rgb(0,0,0)"/></g><g opacity="0.42"><line x1="178.761" y1="288.078" x2="318.136" y2="124.426" vector-effect="non-scaling-stroke" stroke-width="1" stroke="rgb(0,0,0)" stroke-linejoin="miter" stroke-linecap="square" stroke-miterlimit="3"/></g><g opacity="0.42"><line x1="400.298" y1="121.066" x2="563" y2="244" vector-effect="non-scaling-stroke" stroke-width="1" stroke="rgb(0,0,0)" stroke-linejoin="miter" stroke-linecap="square" stroke-miterlimit="3"/></g><g opacity="0.42"><path d=" M 564.512 660.551 C 564.512 656.855 567.514 653.854 571.21 653.854 C 574.906 653.854 577.907 656.855 577.907 660.551 C 577.907 664.248 574.906 667.249 571.21 667.249 C 567.514 667.249 564.512 664.248 564.512 660.551 Z " fill="rgb(0,0,0)"/></g><g opacity="0.42"><path d=" M 662.473 534.758 C 662.473 531.062 665.474 528.06 669.17 528.06 C 672.866 528.06 675.868 531.062 675.868 534.758 C 675.868 538.454 672.866 541.455 669.17 541.455 C 665.474 541.455 662.473 538.454 662.473 534.758 Z " fill="rgb(0,0,0)"/></g><g opacity="0.42"><path d=" M 646.965 237.302 C 646.965 233.606 649.966 230.605 653.662 230.605 C 657.358 230.605 660.36 233.606 660.36 237.302 C 660.36 240.999 657.358 244 653.662 244 C 649.966 244 646.965 240.999 646.965 237.302 Z " fill="rgb(0,0,0)"/></g><g opacity="0.42"><line x1="572.524" y1="661.075" x2="669" y2="533.829" vector-effect="non-scaling-stroke" stroke-width="1" stroke="rgb(0,0,0)" stroke-linejoin="miter" stroke-linecap="square" stroke-miterlimit="3"/></g><g opacity="0.42"><line x1="692" y1="342.225" x2="629.17" y2="464.942" vector-effect="non-scaling-stroke" stroke-width="1" stroke="rgb(0,0,0)" stroke-linejoin="miter" stroke-linecap="square" stroke-miterlimit="3"/></g><g opacity="0.42"><path d=" M 556.466 245.136 C 556.466 241.44 559.467 238.439 563.163 238.439 C 566.859 238.439 569.861 241.44 569.861 245.136 C 569.861 248.833 566.859 251.834 563.163 251.834 C 559.467 251.834 556.466 248.833 556.466 245.136 Z " fill="rgb(0,0,0)"/></g></g></svg>